<svg width="24" height="24" viewBox="0 0 24 24" fill="none" xmlns="http://www.w3.org/2000/svg">
<path d="M19.953 21H4.04699C3.8555 21 3.67061 20.9287 3.52713 20.7994C3.38365 20.6702 3.29147 20.4919 3.26795 20.2982L1.88028 8.38645C1.86745 8.27468 1.87806 8.16141 1.91142 8.05414C1.94478 7.94687 2.00013 7.84805 2.07379 7.76424C2.14745 7.68042 2.23775 7.61352 2.33869 7.56797C2.43964 7.52242 2.54893 7.49926 2.65932 7.50002H21.3407C21.4511 7.49926 21.5604 7.52242 21.6613 7.56797C21.7623 7.61352 21.8525 7.68042 21.9262 7.76424C21.9999 7.84805 22.0552 7.94687 22.0886 8.05414C22.1219 8.16141 22.1326 8.27468 22.1197 8.38645L20.7321 20.2982C20.7085 20.4919 20.6164 20.6702 20.4729 20.7994C20.3294 20.9287 20.1445 21 19.953 21Z" stroke="white" stroke-width="1.5" stroke-linecap="round" stroke-linejoin="round"/>
<path d="M7.5 9.25V5.125C7.5 4.03098 7.97411 2.98177 8.81802 2.20818C9.66193 1.4346 10.8065 1 12 1C13.1935 1 14.3381 1.4346 15.182 2.20818C16.0259 2.98177 16.5 4.03098 16.5 5.125V9.25" stroke="white" stroke-width="1.5" stroke-linecap="round" stroke-linejoin="round"/>
</svg>
