<svg width="32" height="32" viewBox="0 0 32 32" fill="none" xmlns="http://www.w3.org/2000/svg">
<path d="M26.604 28H5.39598C5.14067 28 4.89415 27.9049 4.70284 27.7326C4.51153 27.5602 4.38862 27.3225 4.35726 27.0643L2.50705 11.1819C2.48993 11.0329 2.50408 10.8819 2.54856 10.7389C2.59304 10.5958 2.66684 10.4641 2.76505 10.3523C2.86327 10.2406 2.98366 10.1514 3.11826 10.0906C3.25285 10.0299 3.39857 9.99901 3.54576 10H28.4542C28.6014 9.99901 28.7471 10.0299 28.8817 10.0906C29.0163 10.1514 29.1367 10.2406 29.2349 10.3523C29.3332 10.4641 29.407 10.5958 29.4514 10.7389C29.4959 10.8819 29.5101 11.0329 29.493 11.1819L27.6427 27.0643C27.6114 27.3225 27.4885 27.5602 27.2972 27.7326C27.1058 27.9049 26.8593 28 26.604 28Z" stroke="#3786A5" stroke-width="1.5" stroke-linecap="round" stroke-linejoin="round"/>
<path d="M11.5 15V9.5C11.5 8.04131 11.9741 6.64236 12.818 5.61091C13.6619 4.57946 14.8065 4 16 4C17.1935 4 18.3381 4.57946 19.182 5.61091C20.0259 6.64236 20.5 8.04131 20.5 9.5V15" stroke="#3786A5" stroke-width="1.5" stroke-linecap="round" stroke-linejoin="round"/>
</svg>
