<svg width="72" height="16" viewBox="0 0 72 16" fill="none" xmlns="http://www.w3.org/2000/svg">
<g clip-path="url(#clip0_218_1583)">
<path d="M12.7404 7.99998C13.4042 7.99998 13.9423 7.46186 13.9423 6.79805C13.9423 6.13425 13.4042 5.59613 12.7404 5.59613C12.0766 5.59613 11.5385 6.13425 11.5385 6.79805C11.5385 7.46186 12.0766 7.99998 12.7404 7.99998Z" stroke="white" stroke-width="0.769231" stroke-linecap="round" stroke-linejoin="round"/>
<path d="M2.64418 7.99998C3.30799 7.99998 3.84611 7.46186 3.84611 6.79805C3.84611 6.13425 3.30799 5.59613 2.64418 5.59613C1.98038 5.59613 1.44226 6.13425 1.44226 6.79805C1.44226 7.46186 1.98038 7.99998 2.64418 7.99998Z" stroke="white" stroke-width="0.769231" stroke-linecap="round" stroke-linejoin="round"/>
<path d="M5.52883 5.11533C6.19263 5.11533 6.73075 4.57721 6.73075 3.91341C6.73075 3.24961 6.19263 2.71149 5.52883 2.71149C4.86502 2.71149 4.3269 3.24961 4.3269 3.91341C4.3269 4.57721 4.86502 5.11533 5.52883 5.11533Z" stroke="white" stroke-width="0.769231" stroke-linecap="round" stroke-linejoin="round"/>
<path d="M9.85573 5.11533C10.5195 5.11533 11.0577 4.57721 11.0577 3.91341C11.0577 3.24961 10.5195 2.71149 9.85573 2.71149C9.19193 2.71149 8.65381 3.24961 8.65381 3.91341C8.65381 4.57721 9.19193 5.11533 9.85573 5.11533Z" stroke="white" stroke-width="0.769231" stroke-linecap="round" stroke-linejoin="round"/>
<path d="M7.69226 6.55768C7.22343 6.55785 6.76734 6.71031 6.39266 6.99211C6.01797 7.27391 5.74496 7.6698 5.61473 8.12018C5.4223 8.78261 4.97579 9.3421 4.37255 9.67667C3.93462 9.91016 3.60392 10.3039 3.44959 10.7756C3.29527 11.2473 3.32926 11.7604 3.54448 12.2075C3.75969 12.6547 4.13946 13.0014 4.60436 13.1751C5.06927 13.3488 5.58332 13.336 6.03901 13.1394C7.098 12.7052 8.28532 12.7052 9.3443 13.1394C9.8 13.336 10.314 13.3488 10.7789 13.1751C11.2439 13.0014 11.6236 12.6547 11.8388 12.2075C12.054 11.7604 12.088 11.2473 11.9337 10.7756C11.7794 10.3039 11.4487 9.91016 11.0108 9.67667C10.4079 9.34201 9.96175 8.78249 9.76978 8.12018C9.63955 7.6698 9.36654 7.27391 8.99186 6.99211C8.61717 6.71031 8.16109 6.55785 7.69226 6.55768Z" stroke="white" stroke-width="0.769231" stroke-linecap="round" stroke-linejoin="round"/>
</g>
<path d="M19.9151 3.30499L23.5862 3.31175C24.4787 3.31175 25.2224 3.60246 25.8173 4.18389C26.4055 4.76532 26.703 5.48873 26.703 6.35412C26.703 7.2195 26.4055 7.94967 25.8106 8.5311C25.2156 9.11253 24.4787 9.40325 23.5862 9.40325H20.9563V13H19.9151V3.30499ZM23.5862 4.28531H20.9563V8.43645H23.5862C24.2082 8.43645 24.7153 8.24715 25.0939 7.86854C25.4725 7.48993 25.6618 6.98287 25.6618 6.36088C25.6618 5.73212 25.4725 5.23182 25.0939 4.85321C24.7153 4.47461 24.2082 4.28531 23.5862 4.28531ZM34.1061 10.0388L28.7042 10.0252C28.738 10.627 28.9814 11.1475 29.4411 11.5802C29.9009 12.0197 30.435 12.236 31.057 12.236C31.4694 12.236 31.8547 12.1481 32.2131 11.9588C32.5646 11.7763 32.8215 11.5937 32.9703 11.4044L33.2069 11.134L33.8289 11.756C33.8018 11.7966 33.7613 11.8439 33.7072 11.9115C33.6531 11.9791 33.5449 12.0873 33.3692 12.2428C33.1934 12.3983 33.0108 12.5335 32.808 12.6552C32.6052 12.7769 32.3483 12.8851 32.0305 12.9865C31.7128 13.0879 31.3882 13.1352 31.057 13.1352C30.151 13.1352 29.3667 12.8039 28.7177 12.1279C28.0619 11.4518 27.7374 10.6337 27.7374 9.67368C27.7374 8.71364 28.0551 7.90234 28.7042 7.22626C29.3532 6.55018 30.1104 6.21214 30.9893 6.21214C31.8953 6.21214 32.6525 6.5299 33.261 7.15865C33.8695 7.78741 34.1737 8.57843 34.1737 9.53846L34.1061 10.0388ZM30.9893 7.11809C30.4079 7.11809 29.9009 7.32767 29.4682 7.73332C29.0355 8.14573 28.7786 8.63251 28.7042 9.19366H33.2069C33.1325 8.59871 32.8891 8.09841 32.4767 7.70628C32.0643 7.31415 31.5708 7.11809 30.9893 7.11809ZM36.5265 5.66451V4.13657H37.4256V6.35412H38.8792V7.25331H37.4256V11.2016C37.4256 11.898 37.7231 12.2428 38.3248 12.236C38.4736 12.236 38.6155 12.2225 38.7643 12.1819C38.913 12.1481 39.0212 12.1143 39.1023 12.0873L39.224 12.0332V12.9324C38.9468 13.0744 38.6358 13.142 38.2843 13.1352C37.7096 13.1352 37.2634 12.973 36.9389 12.6349C36.6143 12.2969 36.4588 11.8236 36.4588 11.2016V7.25331H35.2081V6.35412H35.9721C36.3371 6.35412 36.5265 6.12425 36.5265 5.66451ZM41.5159 5.66451V4.13657H42.4151V6.35412H43.8687V7.25331H42.4151V11.2016C42.4151 11.898 42.7126 12.2428 43.3143 12.236C43.4631 12.236 43.605 12.2225 43.7538 12.1819C43.9025 12.1481 44.0107 12.1143 44.0918 12.0873L44.2135 12.0332V12.9324C43.9363 13.0744 43.6253 13.142 43.2737 13.1352C42.6991 13.1352 42.2529 12.973 41.9283 12.6349C41.6038 12.2969 41.4483 11.8236 41.4483 11.2016V7.25331H40.1976V6.35412H40.9615C41.3266 6.35412 41.5159 6.12425 41.5159 5.66451ZM50.643 9.68044C50.643 8.96379 50.3996 8.35532 49.9264 7.86178C49.4531 7.36824 48.8785 7.11809 48.2159 7.11809C47.5533 7.11809 46.9787 7.36824 46.5054 7.86178C46.0322 8.35532 45.7955 8.95703 45.7955 9.67368C45.7955 10.3903 46.0322 10.992 46.5054 11.4923C46.9787 11.9926 47.5533 12.236 48.2159 12.236C48.8785 12.236 49.4531 11.9926 49.9264 11.4991C50.3996 11.0056 50.643 10.3971 50.643 9.68044ZM44.8287 9.68044C44.8287 8.70688 45.1533 7.88882 45.8158 7.2195C46.4784 6.55018 47.2762 6.21214 48.2227 6.21214C49.1624 6.21214 49.9602 6.55018 50.616 7.2195C51.2786 7.88882 51.6031 8.70688 51.6031 9.68044C51.6031 10.654 51.2786 11.4721 50.616 12.1414C49.9602 12.8039 49.1624 13.142 48.2227 13.142C47.2762 13.142 46.4784 12.8039 45.8158 12.1414C45.1533 11.4721 44.8287 10.654 44.8287 9.68044ZM54.3142 9.68044C54.3142 10.3633 54.5508 10.9582 55.0376 11.4721C55.5244 11.9859 56.0652 12.236 56.6669 12.236C57.2348 12.236 57.7487 11.9926 58.2016 11.4923C58.6546 10.992 58.8845 10.3903 58.8845 9.68044C58.8845 8.97055 58.6546 8.36884 58.2016 7.86854C57.7487 7.36824 57.2348 7.11809 56.6669 7.11809C56.0652 7.11809 55.5244 7.375 55.0376 7.88882C54.5508 8.40264 54.3142 8.9976 54.3142 9.68044ZM54.3142 11.9588V15.9139H53.3474V6.36088H54.3142V7.40204C54.3277 7.375 54.3615 7.32767 54.4088 7.27359C54.4561 7.2195 54.5508 7.12485 54.6995 6.98963C54.8483 6.85442 55.0038 6.73272 55.1795 6.62455C55.3486 6.51638 55.5649 6.42172 55.8353 6.34059C56.1058 6.25946 56.383 6.2189 56.6669 6.2189C57.512 6.2189 58.2557 6.55694 58.8912 7.23978C59.5268 7.91587 59.8513 8.73392 59.8513 9.68044C59.8513 10.627 59.5335 11.445 58.898 12.1211C58.2625 12.7972 57.5188 13.1352 56.6669 13.1352C56.383 13.1352 56.1058 13.0947 55.8421 13.0135C55.5784 12.9324 55.3553 12.8377 55.1795 12.7228C54.997 12.6146 54.8415 12.4997 54.7063 12.3848C54.5711 12.2698 54.4764 12.1684 54.4088 12.0873L54.3142 11.9588ZM61.582 13V6.35412H62.5488V13H61.582ZM61.4401 4.13657C61.4401 3.96079 61.4941 3.81881 61.6158 3.69712C61.7375 3.57542 61.8863 3.51457 62.0621 3.51457C62.2378 3.51457 62.3798 3.57542 62.5015 3.69712C62.6232 3.81881 62.6841 3.96079 62.6841 4.13657C62.6841 4.31235 62.6232 4.46109 62.5015 4.58278C62.3798 4.70448 62.2378 4.75856 62.0621 4.75856C61.8863 4.75856 61.7375 4.70448 61.6158 4.58278C61.4941 4.46109 61.4401 4.31235 61.4401 4.13657ZM66.2267 9.19366L68.7891 8.77449C68.7891 8.28771 68.6336 7.88882 68.3226 7.57782C68.0116 7.27359 67.6127 7.11809 67.1259 7.11809C66.7744 7.11809 66.4431 7.19922 66.1321 7.36148C65.8211 7.52374 65.598 7.686 65.4628 7.84826L65.2532 8.08489L64.6312 7.46289C64.6582 7.42909 64.692 7.38176 64.7393 7.32767C64.7867 7.27359 64.8881 7.17218 65.0503 7.0302C65.2126 6.88822 65.3816 6.75977 65.5574 6.64483C65.7332 6.53666 65.9631 6.43525 66.247 6.34736C66.531 6.25946 66.8284 6.21214 67.1259 6.21214C67.8831 6.21214 68.5051 6.46229 69.0054 6.94907C69.5057 7.44261 69.7559 8.05108 69.7559 8.77449V13H68.7891V12.1008C68.7688 12.1279 68.7417 12.1684 68.7012 12.2157C68.6606 12.2631 68.5795 12.3442 68.4443 12.4659C68.3091 12.5876 68.1671 12.689 68.0183 12.7837C67.8628 12.8783 67.66 12.9594 67.4099 13.027C67.1597 13.1014 66.9028 13.1352 66.6391 13.1352C65.9766 13.1352 65.4154 12.9392 64.9625 12.547C64.5095 12.1549 64.2864 11.7087 64.2864 11.2016C64.2864 10.6472 64.4486 10.201 64.7867 9.86298C65.118 9.52494 65.598 9.30183 66.2267 9.19366ZM66.6391 12.236C67.2611 12.236 67.775 12.0332 68.1806 11.6208C68.5863 11.2151 68.7891 10.681 68.7891 10.0252V9.60607L66.5039 10.0252C65.6723 10.1875 65.2532 10.5796 65.2532 11.2016C65.2532 11.4991 65.3749 11.7492 65.6183 11.9453C65.8616 12.1414 66.2064 12.236 66.6391 12.236Z" fill="white"/>
<defs>
<clipPath id="clip0_218_1583">
<rect width="15.3846" height="15.3846" fill="white" transform="translate(0 0.307678)"/>
</clipPath>
</defs>
</svg>
