<svg width="145" height="34" viewBox="0 0 145 34" fill="none" xmlns="http://www.w3.org/2000/svg">
<g clip-path="url(#clip0_222_1728)">
<path d="M25.8536 17C27.2006 17 28.2926 15.908 28.2926 14.561C28.2926 13.2139 27.2006 12.1219 25.8536 12.1219C24.5065 12.1219 23.4146 13.2139 23.4146 14.561C23.4146 15.908 24.5065 17 25.8536 17Z" stroke="#011240" stroke-width="1.5" stroke-linecap="round" stroke-linejoin="round"/>
<path d="M5.36578 17C6.71282 17 7.80481 15.908 7.80481 14.561C7.80481 13.2139 6.71282 12.1219 5.36578 12.1219C4.01875 12.1219 2.92676 13.2139 2.92676 14.561C2.92676 15.908 4.01875 17 5.36578 17Z" stroke="#011240" stroke-width="1.5" stroke-linecap="round" stroke-linejoin="round"/>
<path d="M11.2195 11.1464C12.5666 11.1464 13.6586 10.0544 13.6586 8.70733C13.6586 7.3603 12.5666 6.26831 11.2195 6.26831C9.87251 6.26831 8.78052 7.3603 8.78052 8.70733C8.78052 10.0544 9.87251 11.1464 11.2195 11.1464Z" stroke="#011240" stroke-width="1.5" stroke-linecap="round" stroke-linejoin="round"/>
<path d="M20.0001 11.1464C21.3471 11.1464 22.4391 10.0544 22.4391 8.70733C22.4391 7.3603 21.3471 6.26831 20.0001 6.26831C18.653 6.26831 17.561 7.3603 17.561 8.70733C17.561 10.0544 18.653 11.1464 20.0001 11.1464Z" stroke="#011240" stroke-width="1.5" stroke-linecap="round" stroke-linejoin="round"/>
<path d="M15.6099 14.0731C14.6585 14.0735 13.733 14.3829 12.9726 14.9547C12.2123 15.5266 11.6583 16.3299 11.394 17.2439C11.0035 18.5881 10.0974 19.7234 8.87328 20.4024C7.98462 20.8762 7.31353 21.6752 7.00036 22.6324C6.68719 23.5896 6.75619 24.6308 7.19291 25.5382C7.62964 26.4457 8.40029 27.1492 9.34371 27.5016C10.2871 27.854 11.3303 27.8281 12.255 27.4292C14.404 26.5481 16.8133 26.5481 18.9623 27.4292C19.887 27.8281 20.9302 27.854 21.8736 27.5016C22.817 27.1492 23.5877 26.4457 24.0244 25.5382C24.4611 24.6308 24.5301 23.5896 24.2169 22.6324C23.9038 21.6752 23.2327 20.8762 22.344 20.4024C21.1205 19.7233 20.2153 18.5879 19.8257 17.2439C19.5615 16.3299 19.0074 15.5266 18.2471 14.9547C17.4868 14.3829 16.5613 14.0735 15.6099 14.0731Z" stroke="#011240" stroke-width="1.5" stroke-linecap="round" stroke-linejoin="round"/>
</g>
<path d="M40.4131 7.82622L47.8628 7.83994C49.6737 7.83994 51.1829 8.42988 52.3902 9.60975C53.5838 10.7896 54.1875 12.2576 54.1875 14.0137C54.1875 15.7698 53.5838 17.2515 52.3765 18.4314C51.1692 19.6113 49.6737 20.2012 47.8628 20.2012H42.5259V27.5H40.4131V7.82622ZM47.8628 9.81555H42.5259V18.2393H47.8628C49.125 18.2393 50.1539 17.8552 50.9222 17.0869C51.6905 16.3186 52.0747 15.2896 52.0747 14.0274C52.0747 12.7515 51.6905 11.7363 50.9222 10.968C50.1539 10.1997 49.125 9.81555 47.8628 9.81555ZM69.2103 21.4909L58.2484 21.4634C58.317 22.6845 58.8109 23.7409 59.7439 24.6189C60.6768 25.5107 61.7606 25.9497 63.0228 25.9497C63.8597 25.9497 64.6417 25.7713 65.3689 25.3872C66.0823 25.0168 66.6036 24.6463 66.9055 24.2622L67.3856 23.7134L68.6478 24.9756C68.593 25.0579 68.5106 25.154 68.4009 25.2912C68.2911 25.4284 68.0716 25.6479 67.7149 25.9634C67.3582 26.279 66.9878 26.5534 66.5762 26.8003C66.1646 27.0473 65.6433 27.2668 64.9984 27.4726C64.3536 27.6784 63.6951 27.7744 63.0228 27.7744C61.1844 27.7744 59.593 27.1021 58.2759 25.7302C56.9451 24.3582 56.2866 22.6982 56.2866 20.75C56.2866 18.8018 56.9314 17.1555 58.2484 15.7835C59.5655 14.4116 61.1021 13.7256 62.8856 13.7256C64.7241 13.7256 66.2606 14.3704 67.4954 15.6463C68.7301 16.9223 69.3475 18.5274 69.3475 20.4756L69.2103 21.4909ZM62.8856 15.564C61.7058 15.564 60.6768 15.9893 59.7987 16.8125C58.9207 17.6494 58.3994 18.6372 58.2484 19.7759H67.3856C67.2347 18.5686 66.7408 17.5534 65.9039 16.7576C65.067 15.9619 64.0655 15.564 62.8856 15.564ZM74.1219 12.6143V9.51372H75.9466V14.0137H78.8963V15.8384H75.9466V23.8506C75.9466 25.2637 76.5503 25.9634 77.7713 25.9497C78.0731 25.9497 78.3612 25.9223 78.6631 25.8399C78.9649 25.7713 79.1844 25.7027 79.3491 25.6479L79.596 25.5381V27.3628C79.0335 27.6509 78.4024 27.7881 77.689 27.7744C76.5228 27.7744 75.6173 27.4451 74.9588 26.7591C74.3003 26.0732 73.9847 25.1128 73.9847 23.8506V15.8384H71.4466V14.0137H72.9969C73.7378 14.0137 74.1219 13.5473 74.1219 12.6143ZM84.2469 12.6143V9.51372H86.0716V14.0137H89.0213V15.8384H86.0716V23.8506C86.0716 25.2637 86.6753 25.9634 87.8963 25.9497C88.1981 25.9497 88.4862 25.9223 88.7881 25.8399C89.0899 25.7713 89.3094 25.7027 89.4741 25.6479L89.721 25.5381V27.3628C89.1585 27.6509 88.5274 27.7881 87.814 27.7744C86.6478 27.7744 85.7423 27.4451 85.0838 26.7591C84.4253 26.0732 84.1097 25.1128 84.1097 23.8506V15.8384H81.5716V14.0137H83.1219C83.8628 14.0137 84.2469 13.5473 84.2469 12.6143ZM102.768 20.7637C102.768 19.3095 102.274 18.0747 101.314 17.0732C100.354 16.0716 99.1875 15.564 97.843 15.564C96.4984 15.564 95.3323 16.0716 94.3719 17.0732C93.4116 18.0747 92.9314 19.2957 92.9314 20.75C92.9314 22.2043 93.4116 23.4253 94.3719 24.4405C95.3323 25.4558 96.4984 25.9497 97.843 25.9497C99.1875 25.9497 100.354 25.4558 101.314 24.4543C102.274 23.4527 102.768 22.218 102.768 20.7637ZM90.9695 20.7637C90.9695 18.7881 91.628 17.128 92.9725 15.7698C94.317 14.4116 95.9359 13.7256 97.8567 13.7256C99.7637 13.7256 101.383 14.4116 102.713 15.7698C104.058 17.128 104.716 18.7881 104.716 20.7637C104.716 22.7393 104.058 24.3994 102.713 25.7576C101.383 27.1021 99.7637 27.7881 97.8567 27.7881C95.9359 27.7881 94.317 27.1021 92.9725 25.7576C91.628 24.3994 90.9695 22.7393 90.9695 20.7637ZM110.218 20.7637C110.218 22.1494 110.698 23.3567 111.686 24.3994C112.674 25.4421 113.771 25.9497 114.992 25.9497C116.145 25.9497 117.187 25.4558 118.107 24.4405C119.026 23.4253 119.492 22.2043 119.492 20.7637C119.492 19.3232 119.026 18.1021 118.107 17.0869C117.187 16.0716 116.145 15.564 114.992 15.564C113.771 15.564 112.674 16.0854 111.686 17.128C110.698 18.1707 110.218 19.378 110.218 20.7637ZM110.218 25.3872V33.4131H108.256V14.0274H110.218V16.1402C110.245 16.0854 110.314 15.9893 110.41 15.8796C110.506 15.7698 110.698 15.5777 111 15.3034C111.302 15.029 111.617 14.782 111.974 14.5625C112.317 14.343 112.756 14.1509 113.305 13.9863C113.854 13.8216 114.416 13.7393 114.992 13.7393C116.707 13.7393 118.216 14.4253 119.506 15.811C120.796 17.1829 121.454 18.843 121.454 20.7637C121.454 22.6845 120.809 24.3445 119.52 25.7165C118.23 27.0884 116.721 27.7744 114.992 27.7744C114.416 27.7744 113.854 27.6921 113.319 27.5274C112.784 27.3628 112.331 27.1707 111.974 26.9375C111.604 26.718 111.288 26.4848 111.014 26.2515C110.739 26.0183 110.547 25.8125 110.41 25.6479L110.218 25.3872ZM124.966 27.5V14.0137H126.928V27.5H124.966ZM124.678 9.51372C124.678 9.15701 124.788 8.8689 125.035 8.62195C125.282 8.375 125.584 8.25152 125.941 8.25152C126.297 8.25152 126.585 8.375 126.832 8.62195C127.079 8.8689 127.203 9.15701 127.203 9.51372C127.203 9.87043 127.079 10.1723 126.832 10.4192C126.585 10.6662 126.297 10.7759 125.941 10.7759C125.584 10.7759 125.282 10.6662 125.035 10.4192C124.788 10.1723 124.678 9.87043 124.678 9.51372ZM134.392 19.7759L139.591 18.9253C139.591 17.9375 139.276 17.128 138.645 16.497C138.014 15.8796 137.204 15.564 136.216 15.564C135.503 15.564 134.831 15.7287 134.2 16.0579C133.569 16.3872 133.116 16.7165 132.841 17.0457L132.416 17.5259L131.154 16.2637C131.209 16.1951 131.277 16.0991 131.373 15.9893C131.469 15.8796 131.675 15.6738 132.005 15.3857C132.334 15.0976 132.677 14.8369 133.034 14.6037C133.39 14.3841 133.857 14.1784 134.433 14C135.009 13.8216 135.613 13.7256 136.216 13.7256C137.753 13.7256 139.015 14.2332 140.03 15.221C141.046 16.2226 141.553 17.4573 141.553 18.9253V27.5H139.591V25.6753C139.55 25.7302 139.495 25.8125 139.413 25.9085C139.331 26.0046 139.166 26.1692 138.892 26.4162C138.617 26.6631 138.329 26.8689 138.027 27.061C137.712 27.253 137.3 27.4177 136.793 27.5549C136.285 27.7058 135.764 27.7744 135.229 27.7744C133.884 27.7744 132.745 27.3765 131.826 26.5808C130.907 25.7851 130.454 24.8796 130.454 23.8506C130.454 22.7256 130.784 21.8201 131.469 21.1341C132.142 20.4482 133.116 19.9954 134.392 19.7759ZM135.229 25.9497C136.491 25.9497 137.534 25.5381 138.357 24.7012C139.18 23.878 139.591 22.7942 139.591 21.4634V20.6128L134.954 21.4634C133.267 21.7927 132.416 22.5884 132.416 23.8506C132.416 24.4543 132.663 24.9619 133.157 25.3598C133.651 25.7576 134.351 25.9497 135.229 25.9497Z" fill="#011240"/>
<defs>
<clipPath id="clip0_222_1728">
<rect width="31.2195" height="31.2195" fill="white" transform="translate(0 1.39026)"/>
</clipPath>
</defs>
</svg>
