<svg width="32" height="32" viewBox="0 0 32 32" fill="none" xmlns="http://www.w3.org/2000/svg">
<g clip-path="url(#clip0_52_833)">
<path d="M25.8536 16C27.2006 16 28.2926 14.908 28.2926 13.561C28.2926 12.2139 27.2006 11.1219 25.8536 11.1219C24.5065 11.1219 23.4146 12.2139 23.4146 13.561C23.4146 14.908 24.5065 16 25.8536 16Z" stroke="#011240" stroke-width="1.5" stroke-linecap="round" stroke-linejoin="round"/>
<path d="M5.36578 16C6.71282 16 7.80481 14.908 7.80481 13.561C7.80481 12.2139 6.71282 11.1219 5.36578 11.1219C4.01875 11.1219 2.92676 12.2139 2.92676 13.561C2.92676 14.908 4.01875 16 5.36578 16Z" stroke="#011240" stroke-width="1.5" stroke-linecap="round" stroke-linejoin="round"/>
<path d="M11.2195 10.1464C12.5666 10.1464 13.6586 9.05437 13.6586 7.70733C13.6586 6.3603 12.5666 5.26831 11.2195 5.26831C9.87251 5.26831 8.78052 6.3603 8.78052 7.70733C8.78052 9.05437 9.87251 10.1464 11.2195 10.1464Z" stroke="#011240" stroke-width="1.5" stroke-linecap="round" stroke-linejoin="round"/>
<path d="M20.0001 10.1464C21.3471 10.1464 22.4391 9.05437 22.4391 7.70733C22.4391 6.3603 21.3471 5.26831 20.0001 5.26831C18.653 5.26831 17.561 6.3603 17.561 7.70733C17.561 9.05437 18.653 10.1464 20.0001 10.1464Z" stroke="#011240" stroke-width="1.5" stroke-linecap="round" stroke-linejoin="round"/>
<path d="M15.6099 13.0731C14.6585 13.0735 13.733 13.3829 12.9726 13.9547C12.2123 14.5266 11.6583 15.3299 11.394 16.2439C11.0035 17.5881 10.0974 18.7234 8.87328 19.4024C7.98462 19.8762 7.31353 20.6752 7.00036 21.6324C6.68719 22.5896 6.75619 23.6308 7.19291 24.5382C7.62964 25.4457 8.40029 26.1492 9.34371 26.5016C10.2871 26.854 11.3303 26.8281 12.255 26.4292C14.404 25.5481 16.8133 25.5481 18.9623 26.4292C19.887 26.8281 20.9302 26.854 21.8736 26.5016C22.817 26.1492 23.5877 25.4457 24.0244 24.5382C24.4611 23.6308 24.5301 22.5896 24.2169 21.6324C23.9038 20.6752 23.2327 19.8762 22.344 19.4024C21.1205 18.7233 20.2153 17.5879 19.8257 16.2439C19.5615 15.3299 19.0074 14.5266 18.2471 13.9547C17.4868 13.3829 16.5613 13.0735 15.6099 13.0731Z" stroke="#011240" stroke-width="1.5" stroke-linecap="round" stroke-linejoin="round"/>
</g>
<defs>
<clipPath id="clip0_52_833">
<rect width="31.2195" height="31.2195" fill="white" transform="translate(0 0.390259)"/>
</clipPath>
</defs>
</svg>
